<?xml version="1.0" standalone="no"?>
<!DOCTYPE svg PUBLIC "-//W3C//DTD SVG 20010904//EN"
 "http://www.w3.org/TR/2001/REC-SVG-20010904/DTD/svg10.dtd">
<svg version="1.0" xmlns="http://www.w3.org/2000/svg"
 width="170.000000pt" height="170.000000pt" viewBox="0 0 170.000000 170.000000"
 preserveAspectRatio="xMidYMid meet">
<metadata>
Created by potrace 1.11, written by Peter Selinger 2001-2013
</metadata>
<g transform="translate(0.000000,170.000000) scale(0.100000,-0.100000)"
fill="#000000" stroke="none">
<path d="M764 1646 c-49 -28 -88 -56 -86 -61 2 -6 108 -71 237 -145 l234 -135
3 -282 3 -282 92 52 93 52 0 286 0 286 -244 140 -244 141 -88 -52z"/>
<path d="M389 1428 c-123 -71 -234 -136 -246 -144 -21 -13 -23 -22 -23 -119 0
-58 3 -105 8 -105 4 0 113 61 241 135 129 74 238 135 243 135 5 0 115 -61 243
-135 129 -74 237 -135 240 -135 3 0 5 49 5 108 l0 108 -62 36 c-35 20 -145 83
-244 141 l-182 104 -223 -129z"/>
<path d="M1390 1098 l0 -284 -240 -138 c-132 -76 -240 -141 -240 -145 0 -8
171 -104 184 -104 6 0 118 62 249 138 l237 137 0 287 0 287 -32 17 c-18 9 -61
32 -95 52 l-63 36 0 -283z"/>
<path d="M363 1137 l-243 -142 0 -281 0 -282 93 -54 92 -54 5 280 5 281 242
140 c132 77 239 143 237 146 -4 7 -182 110 -186 108 -2 -1 -112 -65 -245 -142z"/>
<path d="M455 907 l-90 -53 0 -283 0 -284 240 -138 c132 -77 244 -139 249
-139 5 0 49 23 99 52 79 45 88 53 73 64 -9 6 -120 71 -246 144 l-230 132 -2
278 -3 279 -90 -52z"/>
<path d="M602 533 l3 -108 244 -141 244 -141 181 105 c100 57 209 120 244 140
l62 36 0 108 c0 59 -2 108 -5 108 -3 0 -111 -61 -240 -135 -128 -74 -237 -135
-242 -135 -5 0 -114 61 -242 135 -129 74 -238 135 -243 135 -5 0 -7 -48 -6
-107z"/>
</g>
</svg>
